<?xml version="1.0" standalone="no"?>
<!DOCTYPE svg PUBLIC "-//W3C//DTD SVG 20010904//EN"
 "http://www.w3.org/TR/2001/REC-SVG-20010904/DTD/svg10.dtd">
<svg version="1.0" xmlns="http://www.w3.org/2000/svg"
 width="700.000000pt" height="700.000000pt" viewBox="0 0 700.000000 700.000000"
 preserveAspectRatio="xMidYMid meet">
<metadata>
Created by potrace 1.14, written by Peter Selinger 2001-2017
</metadata>
<g transform="translate(0.000000,700.000000) scale(0.100000,-0.100000)"
fill="#000000" stroke="none">
<path d="M3278 6995 c-1 -1 -42 -5 -89 -9 -47 -4 -95 -8 -105 -10 -10 -2 -48
-7 -84 -12 -36 -4 -67 -8 -70 -9 -3 -1 -25 -5 -50 -9 -25 -4 -101 -21 -170
-38 -69 -16 -135 -31 -147 -34 -40 -8 -264 -84 -367 -126 -243 -97 -596 -292
-766 -425 -8 -6 -51 -40 -95 -74 -472 -368 -860 -885 -1085 -1450 -66 -165
-142 -408 -165 -530 -3 -13 -12 -58 -20 -99 -8 -41 -17 -89 -19 -105 -3 -17
-7 -46 -11 -66 -6 -40 -10 -74 -22 -199 -15 -162 -8 -591 12 -711 2 -13 6 -46
9 -74 37 -321 160 -722 326 -1060 59 -119 170 -316 197 -350 4 -6 29 -42 54
-80 220 -335 582 -693 939 -929 178 -118 209 -136 360 -213 344 -176 730 -298
1099 -349 25 -3 57 -8 71 -10 163 -25 682 -25 842 1 13 2 46 7 73 10 74 11 87
13 120 19 17 4 46 9 65 12 95 16 309 73 450 121 557 189 1090 542 1480 982 36
41 70 79 76 85 29 30 185 242 240 326 120 184 241 412 315 597 66 163 147 422
175 558 16 75 54 300 60 350 4 33 9 76 11 95 8 71 10 517 3 595 -17 172 -22
220 -25 225 -2 3 -6 30 -10 60 -3 30 -10 71 -15 90 -5 19 -12 51 -15 70 -3 19
-19 87 -35 150 -161 644 -526 1250 -1031 1715 -492 452 -1151 771 -1799 870
-25 4 -53 9 -62 11 -9 1 -43 6 -75 9 -32 4 -76 9 -98 11 -45 6 -541 14 -547 9z
m487 -399 c50 -4 97 -9 105 -11 8 -2 39 -7 69 -10 30 -4 63 -9 75 -11 12 -2
48 -9 81 -15 307 -54 680 -197 985 -374 355 -207 701 -526 955 -880 36 -49 65
-93 65 -97 0 -4 -159 -8 -352 -8 -194 -1 -387 -3 -428 -5 -152 -7 -297 -19
-365 -30 -16 -2 -52 -7 -80 -11 -77 -9 -276 -52 -373 -80 -513 -148 -913 -514
-1099 -1003 -34 -90 -81 -290 -90 -380 -4 -42 -7 -191 -8 -332 l0 -256 -25 9
c-42 14 -116 85 -214 202 -121 145 -168 193 -242 247 -131 97 -242 133 -409
133 -60 0 -126 -2 -145 -6 -175 -33 -327 -134 -480 -318 -132 -159 -192 -217
-258 -251 -38 -19 -63 -23 -132 -23 -137 0 -187 34 -372 254 -53 63 -113 131
-135 151 -128 121 -285 194 -436 201 l-58 3 6 70 c6 80 12 123 26 215 6 36 13
79 15 95 3 17 16 77 30 135 14 58 27 112 29 120 7 33 107 325 114 335 5 5 12
21 16 33 21 70 198 413 217 420 4 2 8 8 8 13 0 13 104 166 176 260 94 121 152
187 269 304 234 234 493 424 768 563 184 94 272 130 457 192 156 52 375 104
524 125 71 10 109 14 201 21 50 4 91 7 92 9 6 4 336 -3 418 -9z m2556 -1805
c4 0 29 -56 57 -123 93 -229 169 -508 197 -728 3 -25 8 -61 10 -80 23 -177 24
-597 1 -715 -2 -11 -7 -47 -11 -80 -20 -177 -86 -436 -166 -652 -50 -135 -187
-424 -228 -482 -12 -16 -21 -32 -21 -35 0 -7 -130 -203 -155 -234 -7 -9 -43
-55 -80 -101 -328 -412 -778 -748 -1265 -943 -153 -62 -415 -141 -535 -161
-16 -3 -55 -10 -85 -16 -61 -11 -118 -20 -176 -25 -21 -3 -67 -7 -101 -11
l-63 -6 -1 33 c-1 44 -1 2187 0 2213 1 20 8 20 624 19 476 0 632 2 666 12 84
24 142 108 136 194 -5 79 -41 132 -115 170 -33 17 -79 18 -668 19 -348 0 -636
2 -640 5 -9 5 -7 478 2 565 30 283 158 544 365 747 213 209 543 345 946 389
33 4 74 9 90 11 17 2 84 6 150 10 66 3 121 7 123 9 2 2 931 -2 943 -4z m-5789
-1521 c53 -27 109 -80 201 -190 130 -155 161 -187 242 -249 117 -90 266 -141
415 -142 108 0 146 6 246 40 149 51 253 135 429 346 109 132 184 193 260 212
92 22 213 -6 289 -68 16 -13 74 -78 130 -144 207 -246 312 -327 487 -372 46
-12 69 -22 70 -33 1 -18 1 -2240 0 -2258 -1 -14 -20 -13 -246 13 -95 12 -336
66 -463 105 -1100 337 -1921 1251 -2141 2380 -24 124 -30 169 -46 329 l-6 64
45 -5 c25 -3 64 -15 88 -28z"/>
</g>
</svg>
